<svg xmlns="http://www.w3.org/2000/svg" version="1.1" viewBox="-5 -10 110 102.476">
 <path d="m93.73 26.395c-0.10156-4.7852 0.50391-11.434-5.9844-11.707h-7.1133v-0.44141c0-2.9688-2.4141-5.3828-5.3828-5.3828h-1.9062c-3.1445-0.011719-5.5938 2.707-5.3828 5.8242h-7.0859c0.21484-3.1133-2.2344-5.8359-5.3828-5.8242h-1.9062c-3.1445-0.011719-5.5938 2.707-5.3828 5.8242h-7.0859c0.21484-3.1133-2.2383-5.8359-5.3828-5.8203h-1.9062c-2.9688 0-5.3828 2.4141-5.3828 5.3828v0.4375h-5.3086c-1.5703 0-3.0859 0.65234-4.1562 1.793-1.0625 1.1328-1.6211 2.6719-1.5273 4.2109 0.52344 9.2852 0.56641 32.719-10.301 49.672-2.4727 3.5977 0.34766 8.9766 4.7617 8.8164h2.6836v6.25c0 3.1484 2.5547 5.7109 5.6953 5.7109h8.8125c1.2734 0 2.3008-1.0312 2.3008-2.3008 0-1.2734-1.0312-2.3008-2.3008-2.3008h-8.8125c-0.60156 0-1.0898-0.49609-1.0898-1.1055v-6.25h56.797c2.1758 0 4.1875-1.2617 5.1133-3.1953 1.6758-3.4258 5.1367-11.039 8.0117-20.691v30.137c0 0.60938-0.49609 1.1055-1.1055 1.1055h-49.703c-3.0195 0.054688-3.0469 4.5352 0 4.6055h49.703c3.1484 0 5.7109-2.5625 5.7109-5.7109-0.011719-0.13281 0.027343-58.914-0.011719-59.031zm-21.16-12.148c0-0.42969 0.34766-0.77734 0.77734-0.77734h1.9062c0.42969 0 0.77734 0.34766 0.77734 0.77734v2.7148c-0.003906 0.019531-0.003906 0.039062 0 0.058593v2.7148c0 0.42969-0.34766 0.77734-0.77734 0.77734h-1.9062c-0.42969 0-0.77734-0.34766-0.77734-0.77734zm-19.754 0c0-0.42969 0.34766-0.77734 0.77734-0.77734h1.9062c0.42969 0 0.77734 0.34766 0.77734 0.77734v2.668c-0.007813 0.050782-0.007813 0.097657 0 0.14844v2.668c0 0.42969-0.34766 0.77734-0.77734 0.77734h-1.9062c-0.42969 0-0.77734-0.34766-0.77734-0.77734v-5.4883zm-19.754 0c0-0.42969 0.34766-0.77734 0.77734-0.77734h1.9062c0.42969 0 0.77734 0.34766 0.77734 0.77734v5.4883c0 0.42969-0.34766 0.77734-0.77734 0.77734h-1.9062c-0.42969 0-0.77734-0.34766-0.77734-0.77734zm43.922 59.73c-0.17188 0.36328-0.55469 0.59766-0.96875 0.59766h-64.086c-0.55078 0-0.82422-0.34375-0.9375-0.55078-0.097657-0.17578-0.28516-0.64844 0.050781-1.1758 7.7891-12.148 10.324-27.219 10.992-38.77h58.863c1.2734 0 2.3008-1.0312 2.3008-2.3008 0-1.2734-1.0312-2.3008-2.3008-2.3008l-58.68-0.003906c0.070312-3.6445-0.019531-6.7695-0.14844-9.0547 0.019532-0.71875 0.375-1.0508 1.0859-1.125h5.3086c-0.21484 3.1172 2.2344 5.8359 5.3828 5.8242h1.9062c3.1445 0.015624 5.5977-2.707 5.3828-5.8242h7.0859c-0.21484 3.1133 2.2383 5.8359 5.3828 5.8203h1.9062c3.1445 0.015625 5.5938-2.707 5.3828-5.8203h7.0859c-0.21484 3.1133 2.2383 5.8359 5.3828 5.8203h1.9062c3.1445 0.015625 5.5977-2.707 5.3828-5.8203h7.1133c0.56641 0 1.0352 0.44922 1.0938 1.0469 2.1875 22.789-8.5156 46.805-11.859 53.641z"/>
 <path d="m36.684 38.016h-6.3828c-1.5273 0-2.8477 1.0352-3.2188 2.5117l-1.5781 6.3164c-0.5625 2.0156 1.125 4.1758 3.2188 4.1172h6.3828c1.5234 0 2.8477-1.0312 3.2188-2.5117l1.5781-6.3125c0.5625-2.0156-1.1211-4.1797-3.2148-4.1211zm-2.582 8.3398h-3.7266l0.93359-3.7344h3.7266z"/>
 <path d="m56.062 38.016h-6.3828c-1.5273 0-2.8477 1.0352-3.2188 2.5117l-1.5781 6.3164c-0.5625 2.0156 1.125 4.1758 3.2188 4.1172h6.3828c1.5234 0 2.8477-1.0312 3.2188-2.5117l1.5781-6.3125c0.5625-2.0156-1.1211-4.1797-3.2188-4.1211zm-2.5859 8.3398h-3.7266l0.93359-3.7344h3.7266z"/>
 <path d="m75.441 38.016h-6.3828c-1.5234 0-2.8477 1.0352-3.2148 2.5117l-1.5781 6.3164c-0.5625 2.0156 1.125 4.1758 3.2188 4.1172h6.3828c1.5234 0 2.8477-1.0312 3.2188-2.5117l1.5781-6.3125c0.5625-2.0156-1.1211-4.1797-3.2188-4.1211zm-2.5859 8.3398h-3.7266l0.93359-3.7344h3.7266z"/>
 <path d="m32.273 56.891h-6.3828c-1.5234 0-2.8477 1.0352-3.2188 2.5117l-1.5781 6.3125c-0.5625 2.0156 1.125 4.1758 3.2188 4.1211h6.3828c1.5234 0 2.8477-1.0312 3.2188-2.5117l1.5781-6.3125c0.5625-2.0156-1.125-4.1758-3.2188-4.1211zm-2.582 8.3438h-3.7266l0.93359-3.7344h3.7266z"/>
 <path d="m51.652 56.891h-6.3828c-1.5234 0-2.8477 1.0352-3.2188 2.5117l-1.5781 6.3125c-0.5625 2.0156 1.125 4.1758 3.2188 4.1211h6.3828c1.5234 0 2.8477-1.0312 3.2188-2.5117l1.5781-6.3125c0.5625-2.0156-1.125-4.1758-3.2188-4.1211zm-2.5859 8.3438h-3.7266l0.93359-3.7344h3.7266z"/>
 <path d="m71.031 56.891h-6.3828c-1.5234 0-2.8477 1.0352-3.2188 2.5117l-1.5781 6.3125c-0.5625 2.0156 1.125 4.1758 3.2188 4.1211h6.3828c1.5234 0 2.8477-1.0312 3.2188-2.5117l1.5781-6.3125c0.5625-2.0156-1.125-4.1758-3.2188-4.1211zm-2.5859 8.3438h-3.7266l0.93359-3.7344h3.7266z"/>
</svg>